<?xml version="1.0" standalone="no"?>
<!DOCTYPE svg PUBLIC "-//W3C//DTD SVG 20010904//EN"
 "http://www.w3.org/TR/2001/REC-SVG-20010904/DTD/svg10.dtd">
<svg version="1.0" xmlns="http://www.w3.org/2000/svg"
 width="90.000000pt" height="90.000000pt" viewBox="0 0 90.000000 90.000000"
 preserveAspectRatio="xMidYMid meet">
<metadata>
Created by potrace 1.11, written by Peter Selinger 2001-2013
</metadata>
<g transform="translate(0.000000,90.000000) scale(0.100000,-0.100000)"
fill="#000000" stroke="none">
<path d="M0 450 l0 -450 450 0 450 0 0 450 0 450 -450 0 -450 0 0 -450z m370
50 c-6 -11 -13 -20 -16 -20 -2 0 0 9 6 20 6 11 13 20 16 20 2 0 0 -9 -6 -20z
m124 9 c14 -7 27 -18 30 -26 4 -9 -3 -7 -20 6 -34 27 -74 27 -110 0 l-29 -21
28 26 c30 28 62 33 101 15z m-127 -71 c-3 -8 -6 -5 -6 6 -1 11 2 17 5 13 3 -3
4 -12 1 -19z m28 -98 c17 -11 24 -20 17 -20 -20 0 -72 56 -72 77 1 13 4 10 13
-10 7 -15 26 -36 42 -47z m165 54 c0 -22 -54 -74 -77 -74 -12 0 -7 6 14 16 18
9 38 29 45 45 15 33 18 36 18 13z"/>
</g>
</svg>
